<svg xmlns="http://www.w3.org/2000/svg" viewBox="0 0 19.45 20.21"><defs><style>.cls-1{fill:none;stroke:#f6f7fa;stroke-miterlimit:10;}</style></defs><title>Asset 17</title><g id="Layer_2" data-name="Layer 2"><g id="sidebar_...Lists_" data-name="sidebar (...Lists)"><g id="Contact_List" data-name="Contact List"><path class="cls-1" d="M14.14,16.44l-4.49-2.7a.51.51,0,0,0-.67.12l-.58.73a.51.51,0,0,1-.72.1,10.42,10.42,0,0,1-4-6.9.55.55,0,0,1,.43-.61l1.41-.27a.28.28,0,0,0,.22-.25c0-.89.11-4.24.14-5.29a.54.54,0,0,0-.29-.5L5.28.72,5,.61A3.3,3.3,0,0,0,1.07,2.55s0,0,0,0l-.13.46c0,.17-.08.33-.11.49A14,14,0,0,0,.51,6.87,13.49,13.49,0,0,0,9.85,19.44l.47.13c.15.05.31.08.46.12h0a3.33,3.33,0,0,0,3.55-2.53,1.24,1.24,0,0,1,0-.16A.55.55,0,0,0,14.14,16.44Z"/><ellipse class="cls-1" cx="11.52" cy="7.02" rx="1.13" ry="1.16"/><ellipse class="cls-1" cx="14.67" cy="7.02" rx="1.13" ry="1.16"/><ellipse class="cls-1" cx="17.82" cy="7.02" rx="1.13" ry="1.16"/></g></g></g></svg>