<svg xmlns="http://www.w3.org/2000/svg" viewBox="0 0 24 24"><defs><style>.cls-1{fill:#cd5651;opacity:0.41;}.cls-2{fill:#0c4da2;}.cls-3{fill:none;stroke:#0c4da2;stroke-linecap:round;stroke-linejoin:round;}</style></defs><title>Asset 37</title><g id="Layer_2" data-name="Layer 2"><g id="headbar_...List_" data-name="headbar (...List)"><g id="Ticket_List" data-name="Ticket List"><circle class="cls-1" cx="12" cy="12" r="12"/><path class="cls-2" d="M18.87,12.17c-.72-.42-2.82-1.61-3.62-2.06a.42.42,0,0,1-.18-.52l.26-.68a.43.43,0,0,0-.22-.54A8,8,0,0,0,8.86,8.3a.42.42,0,0,0-.23.53L9,9.91a.21.21,0,0,1-.09.25l-3.5,2.16a.43.43,0,0,1-.45,0l-.24-.17L4.53,12a2.66,2.66,0,0,1-.24-3.45l0,0,.26-.27L4.85,8A10.52,10.52,0,0,1,19.17,8a2.37,2.37,0,0,1,.28.27l.26.27,0,0A2.65,2.65,0,0,1,19.45,12l-.1.09A.42.42,0,0,1,18.87,12.17Z"/><line class="cls-3" x1="9.18" y1="13.06" x2="14.94" y2="18.82"/><line class="cls-3" x1="9.18" y1="18.82" x2="14.94" y2="13.06"/></g></g></g></svg>