<svg xmlns="http://www.w3.org/2000/svg" viewBox="0 0 24 24"><defs><style>.cls-1{fill:#a7f9cf;}.cls-2{fill:#0c4da2;}.cls-3{fill:none;stroke:#0c4da2;stroke-linecap:round;stroke-linejoin:round;}</style></defs><title>Asset 36</title><g id="Layer_2" data-name="Layer 2"><g id="headbar_...List_" data-name="headbar (...List)"><g id="Ticket_List" data-name="Ticket List"><circle class="cls-1" cx="12" cy="12" r="12"/><path class="cls-2" d="M18.75,12.12l-3.62,2.06a.42.42,0,0,0-.19.51l.26.69a.41.41,0,0,1-.22.53A8,8,0,0,1,8.74,16a.41.41,0,0,1-.23-.53l.38-1.09a.23.23,0,0,0-.09-.25L5.29,12a.41.41,0,0,0-.45,0,2,2,0,0,0-.23.18,1.12,1.12,0,0,0-.2.18,2.66,2.66,0,0,0-.25,3.44l0,0,.26.27a3.58,3.58,0,0,0,.29.27,10.2,10.2,0,0,0,2.11,1.51,10.54,10.54,0,0,0,12.21-1.58l.28-.28.26-.27,0,0a2.65,2.65,0,0,0-.29-3.44l-.09-.09A.42.42,0,0,0,18.75,12.12Z"/><polyline class="cls-3" points="7.62 8.18 11.58 12.13 18.18 5.87"/></g></g></g></svg>