<svg xmlns="http://www.w3.org/2000/svg" viewBox="0 0 24 24"><defs><style>.cls-1{fill:#fff;}.cls-2{fill:#0c4da2;}</style></defs><title>Asset 39</title><g id="Layer_2" data-name="Layer 2"><g id="headbar_...List_" data-name="headbar (...List)"><g id="Ticket_List" data-name="Ticket List"><circle class="cls-1" cx="12" cy="12" r="12"/><path class="cls-2" d="M17.73,11.6a1.18,1.18,0,0,1,.09.46,1.51,1.51,0,0,1-.08.48,2.06,2.06,0,0,1-.3.52L14,16.55a1.2,1.2,0,0,1-1.7,0,1.2,1.2,0,0,1,0-1.69l1.6-1.6H7.14a1.2,1.2,0,0,1,0-2.4h6.63L12.25,9.34a1.21,1.21,0,0,1,0-1.7,1.2,1.2,0,0,1,1.7,0l3.49,3.5a1.29,1.29,0,0,1,.29.45"/></g></g></g></svg>