<svg xmlns="http://www.w3.org/2000/svg" viewBox="0 0 24 24"><defs><style>.cls-1{fill:#fff;}.cls-2{fill:none;stroke:#0c4da2;stroke-linecap:round;stroke-miterlimit:10;}</style></defs><title>Asset 43</title><g id="Layer_2" data-name="Layer 2"><g id="headbar_...List_" data-name="headbar (...List)"><g id="Ticket_List" data-name="Ticket List"><g id="small"><circle class="cls-1" cx="12" cy="12" r="12"/><g id="small-2" data-name="small"><path class="cls-2" d="M12,7.38A3.61,3.61,0,0,0,8.46,11v3.24c0,.1,0,.2,0,.3"/><path class="cls-2" d="M8.1,14.91l-.5.45a.24.24,0,0,0,.16.42H12"/><path class="cls-2" d="M12,7.38A3.61,3.61,0,0,1,15.54,11v3.24c0,.1,0,.2,0,.3"/><path class="cls-2" d="M15.53,14.58l.87.78a.24.24,0,0,1-.16.42H12"/><path class="cls-2" d="M13,15.78a1,1,0,1,1-2,0"/></g></g></g></g></g></svg>