<svg xmlns="http://www.w3.org/2000/svg" viewBox="0 0 24.03 21.88"><defs><style>.cls-1{fill:none;stroke:#f6f7fa;stroke-linecap:round;stroke-miterlimit:10;}.cls-2{fill:#f6f7fa;}</style></defs><title>Asset 21</title><g id="Layer_2" data-name="Layer 2"><g id="sidebar_...Lists_" data-name="sidebar (...Lists)"><g id="Report"><circle class="cls-1" cx="7.61" cy="6.93" r="3.7"/><path class="cls-1" d="M14.87,16v.17a24.2,24.2,0,0,1-7,1A24.18,24.18,0,0,1,.5,16.05v0a4.7,4.7,0,0,1,4.34-4.66,4.4,4.4,0,0,0,5.56,0A4.67,4.67,0,0,1,14.87,16Z"/><circle class="cls-2" cx="22.73" cy="1.3" r="1.3"/><circle class="cls-2" cx="22.73" cy="10.94" r="1.3"/><circle class="cls-2" cx="22.73" cy="20.58" r="1.3"/><line class="cls-1" x1="20.08" y1="10.99" x2="14.87" y2="10.99"/><path class="cls-1" d="M20.08,1.35H18.4c-.13,0-.24.17-.24.39V20.25c0,.21.11.38.24.38h1.68"/></g></g></g></svg>