<svg xmlns="http://www.w3.org/2000/svg" viewBox="0 0 21.23 21.12"><defs><style>.cls-1{fill:none;stroke:#f6f7fa;stroke-miterlimit:10;}</style></defs><title>Asset 19</title><g id="Layer_2" data-name="Layer 2"><g id="sidebar_...Lists_" data-name="sidebar (...Lists)"><g id="Contact_List" data-name="Contact List"><path class="cls-1" d="M5.25,6.8V.86A.36.36,0,0,1,5.61.5H20.37a.36.36,0,0,1,.36.36V15.62a.36.36,0,0,1-.36.36H14.61"/><path class="cls-1" d="M11.3,9a1.4,1.4,0,0,1,.51.33,1.79,1.79,0,0,1,.36.52,2.35,2.35,0,0,1,.21.74V17a1.55,1.55,0,1,1-3.1,0V14L3.15,20.17A1.55,1.55,0,1,1,1,18L7,11.92H4.23a1.57,1.57,0,0,1-1.55-1.55A1.55,1.55,0,0,1,4.23,8.82h6.39A1.57,1.57,0,0,1,11.3,9"/></g></g></g></svg>