<svg xmlns="http://www.w3.org/2000/svg" viewBox="0 0 25.68 19.4"><defs><style>.cls-1{fill:none;stroke:#f6f7fa;stroke-linecap:round;stroke-miterlimit:10;}</style></defs><title>Report1</title><g id="Layer_2" data-name="Layer 2"><g id="sidebar_...Lists_" data-name="sidebar (...Lists)"><g id="Report"><circle class="cls-1" cx="9.88" cy="5.38" r="4.88"/><path class="cls-1" d="M19.46,17.37v.22a32.15,32.15,0,0,1-9.2,1.31A31.86,31.86,0,0,1,.5,17.41v0a6.19,6.19,0,0,1,5.73-6.15,5.83,5.83,0,0,0,7.33,0A6.18,6.18,0,0,1,19.46,17.37Z"/><path class="cls-1" d="M13.09,9.06a3.61,3.61,0,1,0,1.07-6,4.81,4.81,0,0,1,.61,2.35A4.87,4.87,0,0,1,13.09,9.06Z"/><path class="cls-1" d="M22.6,15.25a4.58,4.58,0,0,0-4.37-4.56,4.25,4.25,0,0,1-2.62,1,6.22,6.22,0,0,1,3.72,4.48,23.64,23.64,0,0,0,3.27-.72Z"/><path class="cls-1" d="M17.93,9.05a2.52,2.52,0,1,0,1.13-3.3,3.21,3.21,0,0,1,.06.63A3.59,3.59,0,0,1,17.93,9.05Z"/><path class="cls-1" d="M25.18,14.19A3.2,3.2,0,0,0,22.13,11a3.14,3.14,0,0,1-1.33.62,4.58,4.58,0,0,1,1.78,3.22,16.17,16.17,0,0,0,2.6-.54Z"/></g></g></g></svg>