<svg xmlns="http://www.w3.org/2000/svg" viewBox="0 0 22.37 22.33"><defs><style>.cls-1{fill:none;stroke:#f6f7fa;stroke-linecap:round;stroke-miterlimit:10;}.cls-2{fill:#f6f7fa;}</style></defs><title>Asset 22</title><g id="Layer_2" data-name="Layer 2"><g id="sidebar_...Lists_" data-name="sidebar (...Lists)"><g id="Report"><line class="cls-1" x1="0.5" y1="21.83" x2="21.87" y2="21.83"/><path class="cls-1" d="M3.14,15.85h3a1,1,0,0,1,1,1v5a0,0,0,0,1,0,0h-5a0,0,0,0,1,0,0v-5A1,1,0,0,1,3.14,15.85Z"/><path class="cls-1" d="M9.55,12.15h3a1,1,0,0,1,1,1v8.68a0,0,0,0,1,0,0h-5a0,0,0,0,1,0,0V13.15A1,1,0,0,1,9.55,12.15Z"/><path class="cls-1" d="M16.18,6.17h3a1,1,0,0,1,1,1V21.83a0,0,0,0,1,0,0h-5a0,0,0,0,1,0,0V7.17A1,1,0,0,1,16.18,6.17Z"/><line class="cls-1" x1="3.56" y1="8.85" x2="17.81" y2="0.62"/><polygon class="cls-2" points="17.63 2.05 17.03 1.03 16.44 0.01 17.62 0 18.8 0 18.21 1.02 17.63 2.05"/></g></g></g></svg>