<svg xmlns="http://www.w3.org/2000/svg" viewBox="0 0 19 18.74"><defs><style>.cls-1,.cls-2{fill:none;stroke:#f6f7fa;stroke-miterlimit:10;}.cls-2{stroke-linecap:round;}</style></defs><title>Asset 18</title><g id="Layer_2" data-name="Layer 2"><g id="sidebar_...Lists_" data-name="sidebar (...Lists)"><g id="Contact_List" data-name="Contact List"><path class="cls-1" d="M16.07,3.39V13.48a.44.44,0,0,1-.44.44H5.1L1.49,17.53V13.92H.94a.44.44,0,0,1-.44-.44V3.39A.44.44,0,0,1,.94,3H15.63A.44.44,0,0,1,16.07,3.39Z"/><line class="cls-2" x1="3.7" y1="7.39" x2="13.43" y2="7.39"/><line class="cls-2" x1="3.7" y1="9.02" x2="7.42" y2="9.02"/><path class="cls-1" d="M2.89,2.93v-2A.4.4,0,0,1,3.29.5h14.8a.41.41,0,0,1,.41.41V11a.41.41,0,0,1-.41.41h-2"/></g></g></g></svg>